<?xml version="1.0" encoding="UTF-8" standalone="no"?>
<!-- Created with Inkscape (http://www.inkscape.org/) -->
<svg xmlns:dc="http://purl.org/dc/elements/1.1/" xmlns:cc="http://creativecommons.org/ns#" xmlns:rdf="http://www.w3.org/1999/02/22-rdf-syntax-ns#" xmlns:svg="http://www.w3.org/2000/svg" xmlns="http://www.w3.org/2000/svg" xmlns:sodipodi="http://sodipodi.sourceforge.net/DTD/sodipodi-0.dtd" xmlns:inkscape="http://www.inkscape.org/namespaces/inkscape" id="svg29" xml:space="preserve" width="1072.4614" height="495.82941" viewBox="0 0 1072.4614 495.82941" sodipodi:docname="MaREI.svg" inkscape:version="0.92.4 (5da689c313, 2019-01-14)">
  <metadata id="metadata35"></metadata>
  <defs id="defs33"></defs>
  <g id="g37" inkscape:groupmode="layer" inkscape:label="ink_ext_XXXXXX" transform="matrix(1.3333333,0,0,-1.3333333,0,493.06932)">
    <g id="g39" transform="scale(0.1)">
      <path d="m 2103.82,2508.91 12.52,14.96 187.01,24.94 14.99,-9.99 561,-1019.88 546.09,992.49 12.47,14.95 204.48,22.43 12.47,-9.99 V 863.23 l -12.47,-12.48 h -184.52 l -7.49,12.48 v 1316.52 l -62.34,-137.16 -403.92,-723.06 -15.01,-12.5 h -179.52 l -14.98,12.5 -403.97,723.06 -57.32,137.16 V 863.23 l -12.46,-12.48 h -184.51 l -12.52,12.48 v 1645.68" style="fill:#233364;fill-opacity:1;fill-rule:nonzero;stroke:none" id="path41" inkscape:connector-curvature="0"></path>
      <path d="m 4325.62,1000.35 c 124.83,0 294.33,72.32 294.33,72.32 v 421.38 c -29.85,-97.34 -134.61,-124.64 -219.35,-124.64 h -59.83 c -87.37,0 -216.98,-32.46 -216.98,-184.55 0,-109.67 77.27,-184.51 201.83,-184.51 z m -291.64,458.83 c 92.29,74.75 226.85,94.81 388.98,94.81 h 87.37 c 54.78,0 89.65,12.36 109.62,24.84 v 117.21 c 0,191.95 -117.22,236.89 -256.78,236.89 -97.3,0 -184.47,-24.98 -246.86,-74.89 l -19.99,2.52 -84.81,124.72 5,19.88 c 89.81,69.9 214.46,107.25 349.06,107.25 254.38,0 453.92,-102.21 453.92,-378.96 v -638.32 l 62.34,-219.54 -12.59,-14.879 -152.01,-22.473 -14.96,10.032 -72.36,179.47 c 0,0 -59.84,-206.939 -336.62,-206.939 -176.98,0 -378.96,92.269 -378.96,366.549 0,124.7 49.83,214.45 119.65,271.83" style="fill:#233364;fill-opacity:1;fill-rule:nonzero;stroke:none" id="path43" inkscape:connector-curvature="0"></path>
      <path d="m 5632.46,1735.89 c 182.04,0 366.51,69.84 366.51,301.78 0,226.87 -184.47,304.2 -366.51,304.2 h -244.33 v -605.98 z m -453.83,785.49 12.51,12.48 h 443.77 c 132.15,0 261.85,-22.43 366.62,-87.3 122.13,-77.31 206.94,-209.46 206.94,-408.89 0,-463.79 -486.2,-486.23 -486.2,-486.23 l 54.83,-54.83 291.76,-351.58 c 42.39,-49.9 104.7,-104.81 199.54,-104.81 9.89,0 17.38,2.49 27.34,2.49 l 9.95,-12.37 -27.4,-169.629 -14.84,-12.441 c -17.6,-2.579 -34.98,-5.04 -52.42,-5.04 -172.15,0 -286.81,149.641 -331.71,207.03 l -388.97,483.67 -17.44,10 h -84.78 v -680.7 l -12.45,-12.48 h -184.54 l -12.51,12.48 v 1658.15" style="fill:#233364;fill-opacity:1;fill-rule:nonzero;stroke:none" id="path45" inkscape:connector-curvature="0"></path>
      <path d="m 6582.6,2521.38 12.45,12.48 h 865.36 l 12.36,-12.48 v -174.53 l -12.36,-12.46 H 6792.1 v -498.71 h 580.94 l 9.96,-12.47 -44.79,-174.58 -15.04,-12.45 H 6792.1 v -585.92 h 670.76 l 9.91,-12.55 -24.88,-174.48 -15.03,-12.48 h -837.81 l -12.45,12.48 v 1658.15" style="fill:#233364;fill-opacity:1;fill-rule:nonzero;stroke:none" id="path47" inkscape:connector-curvature="0"></path>
      <path d="m 7811.96,2508.91 12.55,14.96 184.44,24.94 12.55,-9.99 V 863.23 l -12.55,-12.48 h -184.44 l -12.55,12.48 v 1645.68" style="fill:#233364;fill-opacity:1;fill-rule:nonzero;stroke:none" id="path49" inkscape:connector-curvature="0"></path>
      <path d="m 981.836,2498.1 v -128.52 c 283.944,0 514.124,230.22 514.124,514.2 h -128.48 c 0,-212.98 -172.76,-385.68 -385.644,-385.68" style="fill:#652381;fill-opacity:1;fill-rule:nonzero;stroke:none" id="path51" inkscape:connector-curvature="0"></path>
      <path d="m 1963.26,2969.48 c -20.39,237.9 -125.19,451.77 -284.56,611.26 l -121.14,-121.27 c 128.15,-128.29 213.87,-299.45 233.7,-489.99 h 172" style="fill:#ee2629;fill-opacity:1;fill-rule:nonzero;stroke:none" id="path53" inkscape:connector-curvature="0"></path>
      <path d="M 1791.2,2798.18 C 1772.47,2619.14 1694.67,2445.27 1557.56,2308.11 1260.01,2010.64 789.586,1991.54 469.871,2250.69 L 348.328,2129.18 c 387.203,-325.76 965.822,-306.73 1330.372,57.72 170.51,170.6 265.43,388.28 284.71,611.28 H 1791.2" style="fill:#233364;fill-opacity:1;fill-rule:nonzero;stroke:none" id="path55" inkscape:connector-curvature="0"></path>
      <path d="M 172.738,2798.08 H 0 C 17.1172,2601.87 92.957,2409.9 227.141,2250.39 l 121.617,121.58 c -101.68,125.28 -160.028,273.91 -176.02,426.11" style="fill:#6ec72f;fill-opacity:1;fill-rule:nonzero;stroke:none" id="path57" inkscape:connector-curvature="0"></path>
      <path d="m 703.285,3698.02 c -365.344,0 -665.9881,-319.2 -703.175625,-728.59 H 172.035 c 38.985,385.55 353.496,651.33 711.563,545.93 86.312,-25.2 142.102,-52.94 230.302,-113.97 l -16.84,-16.94 c -37.15,8.54 -75.58,13.44 -115.224,13.44 -284.023,0 -514.203,-230.09 -514.203,-514.11 0,-142.01 57.492,-270.58 150.578,-363.58 l 89.555,89.61 c -71.489,72.1 -115.578,168.16 -115.578,273.97 0,223.97 195.285,405.32 436.292,405.32 102.43,0 196.26,-32.96 270.72,-87.89 l 39.24,39.27 c -114.95,270.66 -355.85,457.54 -635.155,457.54" style="fill:#49a6e1;fill-opacity:1;fill-rule:nonzero;stroke:none" id="path59" inkscape:connector-curvature="0"></path>
      <g id="g61" transform="scale(10)"><text transform="matrix(1,0,0,-1,419.757,8.36914)" style="font-variant:normal;font-weight:bold;font-size:48.36449814px;font-family:Gotham;-inkscape-font-specification:Gotham-Bold;writing-mode:lr-tb;fill:#49a6e1;fill-opacity:1;fill-rule:nonzero;stroke:none" id="text65"><tspan x="0 35.692368 50.297909 64.90345 110.84972 139.48151 159.5518" y="0" sodipodi:role="line" id="tspan63">Climate</tspan></text>
</g>
      <path d="m 4081.08,247.391 c 0,-26.43 -21.44,-47.871 -47.88,-47.871 -26.44,0 -47.88,21.441 -47.88,47.871 0,26.449 21.44,47.879 47.88,47.879 26.44,0 47.88,-21.43 47.88,-47.879" style="fill:#49a6e1;fill-opacity:1;fill-rule:nonzero;stroke:none" id="path67" inkscape:connector-curvature="0"></path>
      <path d="m 6267.02,247.391 c 0,-26.43 -21.43,-47.871 -47.88,-47.871 -26.44,0 -47.87,21.441 -47.87,47.871 0,26.449 21.43,47.879 47.87,47.879 26.45,0 47.88,-21.43 47.88,-47.879" style="fill:#49a6e1;fill-opacity:1;fill-rule:nonzero;stroke:none" id="path69" inkscape:connector-curvature="0"></path>
      <g id="g71" transform="scale(10)"><text transform="matrix(1,0,0,-1,209.311,8.36797)" style="font-variant:normal;font-weight:bold;font-size:48.36449814px;font-family:Gotham;-inkscape-font-specification:Gotham-Bold;writing-mode:lr-tb;fill:#49a6e1;fill-opacity:1;fill-rule:nonzero;stroke:none" id="text77"><tspan x="0 32.404217 62.535297 92.182739 112.3991 145.04514" y="0" sodipodi:role="line" id="tspan73">Energy</tspan><tspan x="429.00699 470.9874 499.61826 519.83459 534.44012 564.57117" y="-0.0011718801" sodipodi:role="line" id="tspan75">Marine</tspan></text>
</g>
    </g>
  </g>
</svg>
